HIERARCHY
ROOT hip
{
	OFFSET 0.000000 0.000000 0.000000 
	CHANNELS 6 Xposition Yposition Zposition Xrotation Zrotation Yrotation
	JOINT abdomen
	{
		OFFSET 0.000000 3.402643 0.000000 
		CHANNELS 3 Xrotation Zrotation Yrotation
		JOINT chest
		{
			OFFSET 0.000000 8.438565 -0.680529 
			CHANNELS 3 Xrotation Zrotation Yrotation
			JOINT neck
			{
				OFFSET 0.000000 10.207942 -0.272212 
				CHANNELS 3 Xrotation Zrotation Yrotation
				JOINT head
				{
					OFFSET 0.000000 3.130431 0.000000 
					CHANNELS 3 Xrotation Zrotation Yrotation
					End Site
					{
						OFFSET 0.000000 3.130435 0.000000 
					}
				}
			}
			JOINT lCollar
			{
				OFFSET 3.470700 6.669187 -0.816635 
				CHANNELS 3 Yrotation Zrotation Xrotation
				JOINT lShldr
				{
					OFFSET 3.198488 0.000000 0.000000 
					CHANNELS 3 Zrotation Yrotation Xrotation
					JOINT lForeArm
					{
						OFFSET 10.139888 0.000000 0.000000 
						CHANNELS 3 Yrotation Zrotation Xrotation
						JOINT lHand
						{
							OFFSET 8.370511 0.000000 0.000000 
							CHANNELS 3 Zrotation Yrotation Xrotation
							End Site
							{
								OFFSET 4.083176 0.000000 0.000000 
							}
						}
					}
				}
			}
			JOINT rCollar
			{
				OFFSET -3.470700 6.669187 -0.816635 
				CHANNELS 3 Yrotation Zrotation Xrotation
				JOINT rShldr
				{
					OFFSET -3.198488 0.000000 0.000000 
					CHANNELS 3 Zrotation Yrotation Xrotation
					JOINT rForeArm
					{
						OFFSET -10.139888 0.000000 0.000000 
						CHANNELS 3 Yrotation Zrotation Xrotation
						JOINT rHand
						{
							OFFSET -8.370511 0.000000 0.000000 
							CHANNELS 3 Zrotation Yrotation Xrotation
							End Site
							{
								OFFSET -4.083176 0.000000 0.000000 
							}
						}
					}
				}
			}
		}
	}
	JOINT lThigh
	{
		OFFSET 5.308129 -1.633274 1.361059 
		CHANNELS 3 Xrotation Zrotation Yrotation
		JOINT lShin
		{
			OFFSET -2.041588 -20.007561 0.000000 
			CHANNELS 3 Xrotation Zrotation Yrotation
			JOINT lFoot
			{
				OFFSET 0.000000 -19.190928 -1.224953 
				CHANNELS 3 Xrotation Yrotation Zrotation
				End Site
				{
					OFFSET 0.000000 -2.449906 4.627600 
				}
			}
		}
	}
	JOINT rThigh
	{
		OFFSET -5.308129 -1.633274 1.361059 
		CHANNELS 3 Xrotation Zrotation Yrotation
		JOINT rShin
		{
			OFFSET 2.041588 -20.007561 0.000000 
			CHANNELS 3 Xrotation Zrotation Yrotation
			JOINT rFoot
			{
				OFFSET 0.000000 -19.190928 -1.224953 
				CHANNELS 3 Xrotation Yrotation Zrotation
				End Site
				{
					OFFSET 0.000000 -2.449906 4.627600 
				}
			}
		}
	}
}
MOTION
Frames: 6
Frame Time: 0.016667
0.000000 35.367058 -12.506656 -32.210777 0.019169 -11.044921 41.954784 -0.859299 -0.761926 32.189896 -0.146465 -0.937522 26.513657 -0.087891 0.009766 -54.430462 1.483940 -1.387012 -0.321535 24.657284 1.328670 -72.926971 -31.050474 -29.719742 -131.324432 -13.748080 -3.638757 -65.320564 -11.751258 -30.499285 0.438174 -27.389860 2.651206 85.325661 37.191315 -38.694260 149.671066 39.957649 -26.098042 84.277756 -68.211121 -39.353672 -7.380936 -4.266604 -0.350844 75.438492 -11.620984 -12.213413 -20.574896 16.580927 5.622973 -62.054695 -7.019788 -12.369584 88.673569 3.193561 7.202987 30.854656 -2.777820 -22.345148 
0.000000 35.515339 -12.121124 -31.011183 0.028809 -10.468750 41.910938 -1.035026 -0.908408 32.222427 -0.371051 -0.869186 26.503775 -0.253906 0.029297 -54.370998 1.523034 -1.318672 -0.182605 24.572306 1.328679 -72.817108 -30.938639 -29.750849 -131.436890 -13.683697 -3.750690 -65.413681 -11.772895 -30.596399 0.646863 -27.440336 2.699382 84.773888 37.246754 -36.460094 148.116943 37.463062 -25.074120 83.392426 -67.976212 -39.772953 -6.246049 -4.187300 -0.288524 74.807510 -11.435397 -12.021235 -22.699694 15.771474 6.513785 -59.101025 -5.624992 -11.531597 82.397697 2.773443 6.282626 32.068810 -1.372920 -20.296074 
0.000000 35.711670 -11.610662 -29.427382 0.076982 -9.814458 41.840057 -1.249776 -1.084365 32.264557 -0.654239 -0.761781 26.484068 -0.449219 0.039061 -54.291851 1.571897 -1.240571 0.000073 24.478390 1.315742 -72.674698 -30.777113 -29.803585 -131.585541 -13.609670 -3.909298 -65.527565 -11.806291 -30.711002 0.924309 -27.487745 2.764857 84.108353 37.307701 -33.697754 146.089920 34.417789 -23.686930 82.268471 -67.660645 -40.270432 -5.161515 -3.942866 -0.157743 73.808609 -11.259457 -11.744689 -24.753117 14.629541 7.278276 -54.967587 -4.199069 -10.634325 73.189751 2.646068 4.985451 34.533424 0.064541 -18.407215 
0.000000 35.907986 -11.100232 -27.849098 0.106058 -9.140628 41.770710 -1.474253 -1.260354 32.296185 -0.937435 -0.674057 26.474060 -0.644531 0.048825 -54.202812 1.620760 -1.162473 0.172951 24.384211 1.306841 -72.532646 -30.615534 -29.850771 -131.723557 -13.535633 -4.067946 -65.640511 -11.849026 -30.831514 1.202397 -27.544374 2.834797 83.449265 37.385582 -30.929720 144.217224 31.326748 -22.475592 81.180809 -67.352127 -40.778893 -4.068913 -3.689263 -0.022757 72.831383 -11.064408 -11.473479 -26.758165 13.488500 8.006111 -50.827866 -2.851396 -9.682941 63.993614 2.294918 3.749857 36.954327 1.550272 -16.592009 
0.000000 36.127201 -10.530268 -26.069366 0.164206 -8.466818 41.749779 -1.649887 -1.416835 32.326042 -1.171818 -0.566687 26.444473 -0.820312 0.058588 -54.141911 1.630573 -1.074617 0.326747 24.270042 1.293902 -72.423485 -30.503641 -29.880808 -131.863281 -13.482449 -4.168797 -65.767265 -11.881008 -30.961578 1.393504 -27.623945 2.878389 82.757156 37.431332 -28.084188 142.099518 28.174459 -21.015104 79.951401 -67.006302 -41.324135 -2.987885 -3.446998 0.010499 71.349518 -10.907973 -11.006418 -28.483103 12.277254 8.466713 -45.979828 -1.747763 -8.696977 52.976776 2.332076 2.352542 40.527100 2.595951 -15.205257 
0.000000 36.346416 -9.960327 -24.305082 0.203194 -7.773457 41.729813 -1.825484 -1.573334 32.345493 -1.406203 -0.469088 26.424603 -0.986327 0.068349 -54.090919 1.650146 -0.986482 0.470730 24.155624 1.280973 -72.306267 -30.384514 -29.924879 -132.001953 -13.419095 -4.272377 -65.903862 -11.923856 -31.102301 1.599617 -27.702557 2.935126 82.069344 37.512646 -25.229876 140.124069 24.996214 -19.737694 78.733055 -66.654266 -41.859734 -1.880264 -3.166208 0.038188 69.888962 -10.760900 -10.529494 -30.177650 11.016967 8.856138 -41.114807 -0.741792 -7.634507 41.973328 2.095868 0.976570 44.069454 3.752754 -13.904308 
